<mxfile host="app.diagrams.net" agent="Mozilla/5.0 (Windows NT 10.0; Win64; x64) AppleWebKit/537.36 (KHTML, like Gecko) Chrome/137.0.0.0 Safari/537.36" version="27.1.6">
  <diagram id="R2lEEEUBdFMjLlhIrx00" name="Page-1">
    <mxGraphModel dx="2360" dy="1134" grid="1" gridSize="10" guides="1" tooltips="1" connect="1" arrows="1" fold="1" page="1" pageScale="1" pageWidth="1654" pageHeight="1169" math="0" shadow="0" extFonts="Permanent Marker^https://fonts.googleapis.com/css?family=Permanent+Marker">
      <root>
        <mxCell id="0" />
        <mxCell id="1" parent="0" />
        <mxCell id="qTvCHO6TYUYPeFaaPzX3-58" value="&lt;b&gt;&lt;font style=&quot;font-size: 16px;&quot;&gt;sales (продажи)&lt;/font&gt;&lt;/b&gt;" style="swimlane;childLayout=stackLayout;horizontal=1;startSize=40;horizontalStack=0;rounded=1;fontSize=14;fontStyle=0;strokeWidth=2;resizeParent=0;resizeLast=1;shadow=0;dashed=0;align=center;arcSize=20;whiteSpace=wrap;html=1;container=0;strokeColor=#1fd195;" parent="1" vertex="1">
          <mxGeometry x="690" y="380" width="300" height="350" as="geometry" />
        </mxCell>
        <mxCell id="qTvCHO6TYUYPeFaaPzX3-59" value="&lt;div style=&quot;&quot;&gt;&lt;span style=&quot;font-size: 14px; background-color: initial;&quot;&gt;&lt;b&gt;&lt;u&gt;invoice_id:&lt;/u&gt;&amp;nbsp; &amp;nbsp; &amp;nbsp; &amp;nbsp; &amp;nbsp; &amp;nbsp; &amp;nbsp; &amp;nbsp; &amp;nbsp; &amp;nbsp; &amp;nbsp; &amp;nbsp; &amp;nbsp; &amp;nbsp; &amp;nbsp; &amp;nbsp; &amp;nbsp; &amp;nbsp; &amp;nbsp; &amp;nbsp; &amp;nbsp; &amp;nbsp; string&lt;/b&gt;&lt;/span&gt;&lt;/div&gt;&lt;div style=&quot;&quot;&gt;&lt;b style=&quot;background-color: initial; font-size: 14px; color: light-dark(rgb(0, 0, 0), rgb(255, 255, 255));&quot;&gt;datetime:&amp;nbsp; &amp;nbsp; &amp;nbsp; &amp;nbsp; &amp;nbsp; &amp;nbsp; &amp;nbsp; &amp;nbsp; &amp;nbsp; &amp;nbsp; &amp;nbsp; &amp;nbsp; &amp;nbsp; &amp;nbsp; &amp;nbsp; &amp;nbsp; &amp;nbsp; &amp;nbsp; &amp;nbsp; &amp;nbsp; &amp;nbsp; datetime&lt;/b&gt;&lt;/div&gt;&lt;div style=&quot;&quot;&gt;&lt;table style=&quot;border-collapse:&amp;lt;br/&amp;gt; collapse;width:180pt&quot; width=&quot;240&quot; cellspacing=&quot;0&quot; cellpadding=&quot;0&quot; border=&quot;0&quot;&gt; &lt;colgroup&gt;&lt;col style=&quot;mso-width-source:userset;mso-width-alt:5558;width:114pt&quot; width=&quot;152&quot;&gt;&lt;/colgroup&gt; &lt;colgroup&gt;&lt;col style=&quot;width:66pt&quot; width=&quot;88&quot;&gt;&lt;/colgroup&gt; &lt;tbody&gt;&lt;tr style=&quot;height:28.5pt&quot; height=&quot;38&quot;&gt;  &lt;td style=&quot;height:28.5pt;width:114pt&quot; width=&quot;152&quot; class=&quot;xl66&quot; height=&quot;38&quot;&gt;&lt;b&gt;&lt;font style=&quot;font-size: 14px;&quot;&gt;gender_id&lt;/font&gt;&lt;/b&gt;&lt;/td&gt;  &lt;td style=&quot;border-left:none;width:66pt&quot; width=&quot;88&quot; class=&quot;xl66&quot;&gt;&lt;b&gt;&lt;font style=&quot;font-size: 14px;&quot;&gt;integer&lt;/font&gt;&lt;/b&gt;&lt;/td&gt; &lt;/tr&gt; &lt;tr style=&quot;height:14.25pt&quot; height=&quot;19&quot;&gt;  &lt;td style=&quot;height:14.25pt;border-top:none&quot; class=&quot;xl66&quot; height=&quot;19&quot;&gt;&lt;b&gt;&lt;font style=&quot;font-size: 14px;&quot;&gt;store_id&amp;nbsp; &amp;nbsp; &amp;nbsp; &amp;nbsp; &amp;nbsp; &amp;nbsp; &amp;nbsp; &amp;nbsp; &amp;nbsp; &amp;nbsp; &amp;nbsp; &amp;nbsp; &amp;nbsp; &amp;nbsp; &amp;nbsp; &amp;nbsp; &amp;nbsp; &amp;nbsp; &amp;nbsp; &amp;nbsp; &amp;nbsp; &amp;nbsp; &amp;nbsp;&lt;/font&gt;&lt;/b&gt;&lt;/td&gt;  &lt;td style=&quot;border-top:none;border-left:none&quot; class=&quot;xl66&quot;&gt;&lt;b&gt;&lt;font style=&quot;font-size: 14px;&quot;&gt;integer&lt;/font&gt;&lt;/b&gt;&lt;/td&gt; &lt;/tr&gt; &lt;tr style=&quot;height:28.5pt&quot; height=&quot;38&quot;&gt;  &lt;td style=&quot;height:28.5pt;border-top:none&quot; class=&quot;xl66&quot; height=&quot;38&quot;&gt;&lt;b&gt;&lt;font style=&quot;font-size: 14px;&quot;&gt;product_id&lt;/font&gt;&lt;/b&gt;&lt;/td&gt;  &lt;td style=&quot;border-top:none;border-left:none&quot; class=&quot;xl66&quot;&gt;&lt;b&gt;&lt;font style=&quot;font-size: 14px;&quot;&gt;integer&lt;/font&gt;&lt;/b&gt;&lt;/td&gt; &lt;/tr&gt; &lt;tr style=&quot;height:28.5pt&quot; height=&quot;38&quot;&gt;  &lt;td style=&quot;height:28.5pt;border-top:none&quot; class=&quot;xl66&quot; height=&quot;38&quot;&gt;&lt;b&gt;&lt;font style=&quot;font-size: 14px;&quot;&gt;payment_id&lt;/font&gt;&lt;/b&gt;&lt;/td&gt;  &lt;td style=&quot;border-top:none;border-left:none&quot; class=&quot;xl66&quot;&gt;&lt;b&gt;&lt;font style=&quot;font-size: 14px;&quot;&gt;integer&lt;/font&gt;&lt;/b&gt;&lt;/td&gt;&lt;/tr&gt; &lt;tr style=&quot;height:14.25pt&quot; height=&quot;19&quot;&gt;  &lt;td style=&quot;height:14.25pt;border-top:none&quot; class=&quot;xl66&quot; height=&quot;19&quot;&gt;&lt;b&gt;&lt;font style=&quot;font-size: 14px;&quot;&gt;quantity&lt;/font&gt;&lt;/b&gt;&lt;/td&gt;  &lt;td style=&quot;border-top:none;border-left:none&quot; class=&quot;xl66&quot;&gt;&lt;b&gt;&lt;font style=&quot;font-size: 14px;&quot;&gt;integer&lt;/font&gt;&lt;/b&gt;&lt;/td&gt; &lt;/tr&gt; &lt;tr style=&quot;height:14.25pt&quot; height=&quot;19&quot;&gt;  &lt;td style=&quot;height:14.25pt;border-top:none&quot; class=&quot;xl66&quot; height=&quot;19&quot;&gt;&lt;b&gt;&lt;font style=&quot;font-size: 14px;&quot;&gt;tax&lt;/font&gt;&lt;/b&gt;&lt;/td&gt;  &lt;td style=&quot;border-top:none;border-left:none&quot; class=&quot;xl66&quot;&gt;&lt;b&gt;&lt;font style=&quot;font-size: 14px;&quot;&gt;float&lt;/font&gt;&lt;/b&gt;&lt;/td&gt; &lt;/tr&gt; &lt;tr style=&quot;height:14.25pt&quot; height=&quot;19&quot;&gt;  &lt;td style=&quot;height:14.25pt;border-top:none&quot; class=&quot;xl66&quot; height=&quot;19&quot;&gt;&lt;b&gt;&lt;font style=&quot;font-size: 14px;&quot;&gt;total&lt;/font&gt;&lt;/b&gt;&lt;/td&gt;  &lt;td style=&quot;border-top:none;border-left:none&quot; class=&quot;xl66&quot;&gt;&lt;b&gt;&lt;font style=&quot;font-size: 14px;&quot;&gt;float&lt;/font&gt;&lt;/b&gt;&lt;/td&gt; &lt;/tr&gt; &lt;tr style=&quot;height:14.25pt&quot; height=&quot;19&quot;&gt;  &lt;td style=&quot;height:14.25pt;border-top:none&quot; class=&quot;xl66&quot; height=&quot;19&quot;&gt;&lt;b&gt;&lt;font style=&quot;font-size: 14px;&quot;&gt;cogs&lt;/font&gt;&lt;/b&gt;&lt;/td&gt;  &lt;td style=&quot;border-top:none;border-left:none&quot; class=&quot;xl66&quot;&gt;&lt;b&gt;&lt;font style=&quot;font-size: 14px;&quot;&gt;float&lt;/font&gt;&lt;/b&gt;&lt;/td&gt; &lt;/tr&gt; &lt;tr style=&quot;height:14.25pt&quot; height=&quot;19&quot;&gt;  &lt;td style=&quot;height:14.25pt;border-top:none&quot; class=&quot;xl66&quot; height=&quot;19&quot;&gt;&lt;b&gt;&lt;font style=&quot;font-size: 14px;&quot;&gt;gross_income&lt;/font&gt;&lt;/b&gt;&lt;/td&gt;  &lt;td style=&quot;border-top:none;border-left:none&quot; class=&quot;xl66&quot;&gt;&lt;b&gt;&lt;font style=&quot;font-size: 14px;&quot;&gt;float&lt;/font&gt;&lt;/b&gt;&lt;/td&gt; &lt;/tr&gt; &lt;tr style=&quot;height:15.75pt&quot; height=&quot;21&quot;&gt;  &lt;td style=&quot;height:15.75pt;border-top:none&quot; class=&quot;xl66&quot; height=&quot;21&quot;&gt;&lt;b&gt;&lt;font style=&quot;font-size: 14px;&quot;&gt;rating&lt;/font&gt;&lt;/b&gt;&lt;/td&gt;  &lt;td style=&quot;border-top:none;border-left:none&quot; class=&quot;xl66&quot;&gt;&lt;b&gt;&lt;font style=&quot;font-size: 14px;&quot;&gt;float&lt;/font&gt;&lt;/b&gt;&lt;/td&gt; &lt;/tr&gt;&lt;/tbody&gt;&lt;/table&gt;&amp;nbsp;&amp;nbsp;&lt;/div&gt;" style="align=left;strokeColor=none;fillColor=none;spacingLeft=4;fontSize=12;verticalAlign=top;resizable=0;rotatable=0;part=1;html=1;" parent="qTvCHO6TYUYPeFaaPzX3-58" vertex="1">
          <mxGeometry y="40" width="300" height="310" as="geometry" />
        </mxCell>
        <mxCell id="qTvCHO6TYUYPeFaaPzX3-60" value="&lt;span style=&quot;font-size: 16px;&quot;&gt;&lt;b&gt;store&lt;/b&gt;&lt;/span&gt;" style="swimlane;childLayout=stackLayout;horizontal=1;startSize=40;horizontalStack=0;rounded=1;fontSize=14;fontStyle=0;strokeWidth=2;resizeParent=0;resizeLast=1;shadow=0;dashed=0;align=center;arcSize=20;whiteSpace=wrap;html=1;container=0;strokeColor=#1fd195;" parent="1" vertex="1">
          <mxGeometry x="1090" y="380" width="290" height="150" as="geometry" />
        </mxCell>
        <mxCell id="qTvCHO6TYUYPeFaaPzX3-61" value="&lt;div style=&quot;text-align: right;&quot;&gt;&lt;span style=&quot;background-color: transparent; text-align: left; font-size: 14px;&quot;&gt;&lt;b&gt;&lt;u&gt;store_id&lt;/u&gt;&lt;/b&gt;&lt;/span&gt;&lt;span style=&quot;font-size: 14px; background-color: initial;&quot;&gt;&lt;b&gt;&lt;u&gt;:&lt;/u&gt;&amp;nbsp; &amp;nbsp; &amp;nbsp; &amp;nbsp; &amp;nbsp; &amp;nbsp; &amp;nbsp; &amp;nbsp; &amp;nbsp; &amp;nbsp; &amp;nbsp; &amp;nbsp; &amp;nbsp; &amp;nbsp; &amp;nbsp; &amp;nbsp; &amp;nbsp; &amp;nbsp; &amp;nbsp; &amp;nbsp; &amp;nbsp; int&amp;nbsp; &amp;nbsp; &amp;nbsp; &amp;nbsp; &amp;nbsp; &amp;nbsp; &amp;nbsp; &amp;nbsp;&lt;/b&gt;&lt;/span&gt;&lt;/div&gt;&lt;div style=&quot;text-align: right;&quot;&gt;&lt;span style=&quot;background-color: transparent; color: light-dark(rgb(0, 0, 0), rgb(255, 255, 255)); text-align: left; font-size: 14px;&quot;&gt;&lt;b&gt;branch&lt;/b&gt;&lt;/span&gt;&lt;span style=&quot;background-color: initial; color: light-dark(rgb(0, 0, 0), rgb(255, 255, 255)); font-size: 14px;&quot;&gt;&lt;b&gt;:&amp;nbsp; &amp;nbsp; &amp;nbsp; &amp;nbsp; &amp;nbsp; &amp;nbsp; &amp;nbsp; &amp;nbsp; &amp;nbsp; &amp;nbsp; &amp;nbsp; &amp;nbsp; &amp;nbsp; &amp;nbsp; &amp;nbsp; &amp;nbsp; &amp;nbsp; &amp;nbsp; &amp;nbsp; &amp;nbsp;&lt;/b&gt;&lt;/span&gt;&lt;b style=&quot;background-color: initial; color: light-dark(rgb(0, 0, 0), rgb(255, 255, 255)); font-size: 14px;&quot;&gt;&amp;nbsp;string&amp;nbsp; &amp;nbsp; &amp;nbsp; &amp;nbsp; &amp;nbsp; &amp;nbsp; &amp;nbsp;&amp;nbsp;&lt;/b&gt;&lt;/div&gt;&lt;div style=&quot;text-align: left;&quot;&gt;&lt;span style=&quot;background-color: initial; color: light-dark(rgb(0, 0, 0), rgb(255, 255, 255)); font-size: 14px;&quot;&gt;&lt;b&gt;city:&amp;nbsp; &amp;nbsp; &amp;nbsp; &amp;nbsp; &amp;nbsp; &amp;nbsp; &amp;nbsp; &amp;nbsp; &amp;nbsp; &amp;nbsp; &amp;nbsp; &amp;nbsp; &amp;nbsp; &amp;nbsp; &amp;nbsp; &amp;nbsp; &amp;nbsp; &amp;nbsp; &amp;nbsp; &amp;nbsp; &amp;nbsp; &amp;nbsp;&amp;nbsp;&lt;/b&gt;&lt;/span&gt;&lt;b style=&quot;background-color: initial; color: light-dark(rgb(0, 0, 0), rgb(255, 255, 255)); font-size: 14px;&quot;&gt;&amp;nbsp;string&amp;nbsp;&amp;nbsp;&lt;/b&gt;&lt;b style=&quot;background-color: initial; color: light-dark(rgb(0, 0, 0), rgb(255, 255, 255)); font-size: 14px;&quot;&gt;&amp;nbsp; &amp;nbsp; &amp;nbsp; &amp;nbsp; &amp;nbsp; &amp;nbsp; &amp;nbsp;&lt;/b&gt;&lt;/div&gt;&lt;div style=&quot;text-align: right;&quot;&gt;&lt;br&gt;&lt;/div&gt;" style="align=left;strokeColor=none;fillColor=none;spacingLeft=4;fontSize=12;verticalAlign=top;resizable=0;rotatable=0;part=1;html=1;" parent="qTvCHO6TYUYPeFaaPzX3-60" vertex="1">
          <mxGeometry y="40" width="290" height="110" as="geometry" />
        </mxCell>
        <mxCell id="ydwCoj0o6i2KOwac89_i-3" value="&lt;span style=&quot;font-size: 16px;&quot;&gt;&lt;b&gt;gender&lt;/b&gt;&lt;/span&gt;" style="swimlane;childLayout=stackLayout;horizontal=1;startSize=40;horizontalStack=0;rounded=1;fontSize=14;fontStyle=0;strokeWidth=2;resizeParent=0;resizeLast=1;shadow=0;dashed=0;align=center;arcSize=20;whiteSpace=wrap;html=1;container=0;strokeColor=#1fd195;" parent="1" vertex="1">
          <mxGeometry x="1080" y="590" width="310" height="150" as="geometry" />
        </mxCell>
        <mxCell id="ydwCoj0o6i2KOwac89_i-4" value="&lt;div style=&quot;text-align: right;&quot;&gt;&lt;span style=&quot;background-color: transparent; text-align: left; font-size: 14px;&quot;&gt;&lt;b&gt;&lt;u&gt;gender_id&lt;/u&gt;&lt;/b&gt;&lt;/span&gt;&lt;span style=&quot;font-size: 14px; background-color: initial;&quot;&gt;&lt;b&gt;&lt;u&gt;:&lt;/u&gt;&amp;nbsp; &amp;nbsp; &amp;nbsp; &amp;nbsp; &amp;nbsp; &amp;nbsp; &amp;nbsp; &amp;nbsp; &amp;nbsp; &amp;nbsp; &amp;nbsp; &amp;nbsp; &amp;nbsp; &amp;nbsp; &amp;nbsp; &amp;nbsp; &amp;nbsp; &amp;nbsp; &amp;nbsp; &amp;nbsp; &amp;nbsp; &amp;nbsp; &amp;nbsp; &amp;nbsp; &amp;nbsp; &amp;nbsp; &amp;nbsp; int&amp;nbsp; &amp;nbsp; &amp;nbsp; &amp;nbsp; &amp;nbsp; &amp;nbsp; &amp;nbsp; &amp;nbsp;&lt;/b&gt;&lt;/span&gt;&lt;/div&gt;&lt;div style=&quot;text-align: left;&quot;&gt;&lt;span style=&quot;background-color: initial; color: light-dark(rgb(0, 0, 0), rgb(255, 255, 255)); font-size: 14px;&quot;&gt;&lt;b&gt;gender:&amp;nbsp; &amp;nbsp; &amp;nbsp; &amp;nbsp; &amp;nbsp; &amp;nbsp; &amp;nbsp; &amp;nbsp; &amp;nbsp; &amp;nbsp; &amp;nbsp; &amp;nbsp; &amp;nbsp; &amp;nbsp; &amp;nbsp; &amp;nbsp; &amp;nbsp; &amp;nbsp; &amp;nbsp; &amp;nbsp; &amp;nbsp; &amp;nbsp; &amp;nbsp; &amp;nbsp; &amp;nbsp; &amp;nbsp;&amp;nbsp;&lt;/b&gt;&lt;/span&gt;&lt;b style=&quot;background-color: initial; color: light-dark(rgb(0, 0, 0), rgb(255, 255, 255)); font-size: 14px;&quot;&gt;&amp;nbsp;string&amp;nbsp; &amp;nbsp; &amp;nbsp; &amp;nbsp; &amp;nbsp; &amp;nbsp; &amp;nbsp; &amp;nbsp;&lt;/b&gt;&lt;/div&gt;&lt;div style=&quot;text-align: right;&quot;&gt;&lt;br&gt;&lt;/div&gt;" style="align=left;strokeColor=none;fillColor=none;spacingLeft=4;fontSize=12;verticalAlign=top;resizable=0;rotatable=0;part=1;html=1;" parent="ydwCoj0o6i2KOwac89_i-3" vertex="1">
          <mxGeometry y="40" width="310" height="110" as="geometry" />
        </mxCell>
        <mxCell id="ydwCoj0o6i2KOwac89_i-5" value="&lt;span style=&quot;font-size: 16px;&quot;&gt;&lt;b&gt;customer_type&lt;/b&gt;&lt;/span&gt;" style="swimlane;childLayout=stackLayout;horizontal=1;startSize=40;horizontalStack=0;rounded=1;fontSize=14;fontStyle=0;strokeWidth=2;resizeParent=0;resizeLast=1;shadow=0;dashed=0;align=center;arcSize=20;whiteSpace=wrap;html=1;container=0;strokeColor=#1fd195;" parent="1" vertex="1">
          <mxGeometry x="690" y="190" width="310" height="150" as="geometry" />
        </mxCell>
        <mxCell id="ydwCoj0o6i2KOwac89_i-6" value="&lt;div style=&quot;text-align: right;&quot;&gt;&lt;span style=&quot;background-color: transparent; text-align: left; font-size: 14px;&quot;&gt;&lt;b&gt;&lt;u&gt;customer_type_id&lt;/u&gt;&lt;/b&gt;&lt;/span&gt;&lt;span style=&quot;font-size: 14px; background-color: initial;&quot;&gt;&lt;b&gt;&lt;u&gt;:&lt;/u&gt;&amp;nbsp; &amp;nbsp; &amp;nbsp; &amp;nbsp; &amp;nbsp; &amp;nbsp; &amp;nbsp; &amp;nbsp; &amp;nbsp; &amp;nbsp; &amp;nbsp; &amp;nbsp; &amp;nbsp; &amp;nbsp; &amp;nbsp; &amp;nbsp; &amp;nbsp; &amp;nbsp; &amp;nbsp; int&amp;nbsp; &amp;nbsp; &amp;nbsp; &amp;nbsp; &amp;nbsp; &amp;nbsp; &amp;nbsp; &amp;nbsp;&lt;/b&gt;&lt;/span&gt;&lt;/div&gt;&lt;div style=&quot;text-align: right;&quot;&gt;&lt;span style=&quot;background-color: transparent; color: light-dark(rgb(0, 0, 0), rgb(255, 255, 255)); text-align: left; font-size: 14px;&quot;&gt;&lt;b&gt;customer_type&lt;/b&gt;&lt;/span&gt;&lt;span style=&quot;background-color: initial; color: light-dark(rgb(0, 0, 0), rgb(255, 255, 255)); font-size: 14px;&quot;&gt;&lt;b&gt;:&amp;nbsp; &amp;nbsp; &amp;nbsp; &amp;nbsp; &amp;nbsp; &amp;nbsp; &amp;nbsp; &amp;nbsp; &amp;nbsp; &amp;nbsp; &amp;nbsp; &amp;nbsp; &amp;nbsp; &amp;nbsp; &amp;nbsp; &amp;nbsp; &amp;nbsp; &amp;nbsp; &amp;nbsp;&lt;/b&gt;&lt;/span&gt;&lt;b style=&quot;background-color: initial; color: light-dark(rgb(0, 0, 0), rgb(255, 255, 255)); font-size: 14px;&quot;&gt;&amp;nbsp;string&amp;nbsp; &amp;nbsp; &amp;nbsp; &amp;nbsp; &amp;nbsp; &amp;nbsp; &amp;nbsp; &amp;nbsp;&lt;/b&gt;&lt;/div&gt;&lt;div style=&quot;text-align: right;&quot;&gt;&lt;br&gt;&lt;/div&gt;" style="align=left;strokeColor=none;fillColor=none;spacingLeft=4;fontSize=12;verticalAlign=top;resizable=0;rotatable=0;part=1;html=1;" parent="ydwCoj0o6i2KOwac89_i-5" vertex="1">
          <mxGeometry y="40" width="310" height="110" as="geometry" />
        </mxCell>
        <mxCell id="ydwCoj0o6i2KOwac89_i-7" value="&lt;span style=&quot;font-size: 16px;&quot;&gt;&lt;b&gt;product&lt;/b&gt;&lt;/span&gt;" style="swimlane;childLayout=stackLayout;horizontal=1;startSize=40;horizontalStack=0;rounded=1;fontSize=14;fontStyle=0;strokeWidth=2;resizeParent=0;resizeLast=1;shadow=0;dashed=0;align=center;arcSize=20;whiteSpace=wrap;html=1;container=0;strokeColor=#1fd195;" parent="1" vertex="1">
          <mxGeometry x="310" y="310" width="310" height="150" as="geometry" />
        </mxCell>
        <mxCell id="ydwCoj0o6i2KOwac89_i-8" value="&lt;div style=&quot;text-align: right;&quot;&gt;&lt;span style=&quot;background-color: transparent; text-align: left; font-size: 14px;&quot;&gt;&lt;b&gt;&lt;u&gt;product&lt;/u&gt;&lt;/b&gt;&lt;/span&gt;&lt;span style=&quot;background-color: transparent; text-align: left; font-size: 14px;&quot;&gt;&lt;b&gt;&lt;u&gt;_id:&lt;/u&gt;&lt;/b&gt;&lt;/span&gt;&lt;span style=&quot;font-size: 14px; background-color: initial;&quot;&gt;&lt;b&gt;&amp;nbsp; &amp;nbsp; &amp;nbsp; &amp;nbsp; &amp;nbsp; &amp;nbsp; &amp;nbsp; &amp;nbsp; &amp;nbsp; &amp;nbsp; &amp;nbsp; &amp;nbsp; &amp;nbsp; &amp;nbsp; &amp;nbsp; &amp;nbsp; &amp;nbsp; &amp;nbsp; &amp;nbsp; &amp;nbsp; &amp;nbsp; &amp;nbsp; &amp;nbsp;int&amp;nbsp; &amp;nbsp; &amp;nbsp; &amp;nbsp; &amp;nbsp; &amp;nbsp; &amp;nbsp; &amp;nbsp;&lt;/b&gt;&lt;/span&gt;&lt;/div&gt;&lt;div style=&quot;text-align: right;&quot;&gt;&lt;span style=&quot;background-color: transparent; color: light-dark(rgb(0, 0, 0), rgb(255, 255, 255)); text-align: left; font-size: 14px;&quot;&gt;&lt;b&gt;product&lt;/b&gt;&lt;/span&gt;&lt;span style=&quot;background-color: transparent; color: light-dark(rgb(0, 0, 0), rgb(255, 255, 255)); text-align: left; font-size: 14px;&quot;&gt;&lt;b&gt;_line&lt;/b&gt;&lt;/span&gt;&lt;span style=&quot;background-color: initial; color: light-dark(rgb(0, 0, 0), rgb(255, 255, 255)); font-size: 14px;&quot;&gt;&lt;b&gt;:&amp;nbsp; &amp;nbsp; &amp;nbsp; &amp;nbsp; &amp;nbsp; &amp;nbsp; &amp;nbsp; &amp;nbsp; &amp;nbsp; &amp;nbsp; &amp;nbsp; &amp;nbsp; &amp;nbsp; &amp;nbsp; &amp;nbsp; &amp;nbsp; &amp;nbsp; &amp;nbsp; &amp;nbsp;&amp;nbsp;&lt;/b&gt;&lt;/span&gt;&lt;b style=&quot;background-color: initial; color: light-dark(rgb(0, 0, 0), rgb(255, 255, 255)); font-size: 14px;&quot;&gt;&amp;nbsp;string&amp;nbsp; &amp;nbsp; &amp;nbsp; &amp;nbsp; &amp;nbsp; &amp;nbsp; &amp;nbsp;&lt;/b&gt;&lt;/div&gt;&lt;div style=&quot;text-align: right;&quot;&gt;&lt;span style=&quot;background-color: transparent; color: light-dark(rgb(0, 0, 0), rgb(255, 255, 255)); text-align: left; font-size: 14px;&quot;&gt;&lt;b&gt;&amp;nbsp; unit_price&lt;/b&gt;&lt;/span&gt;&lt;span style=&quot;background-color: initial; color: light-dark(rgb(0, 0, 0), rgb(255, 255, 255)); font-size: 14px;&quot;&gt;&lt;b&gt;:&amp;nbsp; &amp;nbsp; &amp;nbsp; &amp;nbsp; &amp;nbsp; &amp;nbsp; &amp;nbsp; &amp;nbsp; &amp;nbsp; &amp;nbsp; &amp;nbsp; &amp;nbsp; &amp;nbsp; &amp;nbsp; &amp;nbsp; &amp;nbsp; &amp;nbsp; &amp;nbsp; &amp;nbsp;&lt;/b&gt;&lt;/span&gt;&lt;b style=&quot;background-color: initial; color: light-dark(rgb(0, 0, 0), rgb(255, 255, 255)); font-size: 14px;&quot;&gt;&amp;nbsp; &amp;nbsp; float&amp;nbsp; &amp;nbsp; &amp;nbsp; &amp;nbsp; &amp;nbsp; &amp;nbsp; &amp;nbsp; &amp;nbsp;&lt;/b&gt;&lt;/div&gt;&lt;div style=&quot;text-align: right;&quot;&gt;&lt;br&gt;&lt;/div&gt;&lt;div style=&quot;text-align: right;&quot;&gt;&lt;b style=&quot;background-color: initial; color: light-dark(rgb(0, 0, 0), rgb(255, 255, 255)); font-size: 14px;&quot;&gt;&amp;nbsp; &amp;nbsp; &amp;nbsp; &amp;nbsp; &amp;nbsp; &amp;nbsp; &amp;nbsp; &amp;nbsp;&lt;/b&gt;&lt;/div&gt;&lt;div style=&quot;text-align: right;&quot;&gt;&lt;br&gt;&lt;/div&gt;" style="align=left;strokeColor=none;fillColor=none;spacingLeft=4;fontSize=12;verticalAlign=top;resizable=0;rotatable=0;part=1;html=1;" parent="ydwCoj0o6i2KOwac89_i-7" vertex="1">
          <mxGeometry y="40" width="310" height="110" as="geometry" />
        </mxCell>
        <mxCell id="ydwCoj0o6i2KOwac89_i-9" value="&lt;span style=&quot;font-size: 16px;&quot;&gt;&lt;b&gt;payment&lt;/b&gt;&lt;/span&gt;" style="swimlane;childLayout=stackLayout;horizontal=1;startSize=40;horizontalStack=0;rounded=1;fontSize=14;fontStyle=0;strokeWidth=2;resizeParent=0;resizeLast=1;shadow=0;dashed=0;align=center;arcSize=20;whiteSpace=wrap;html=1;container=0;strokeColor=#1fd195;" parent="1" vertex="1">
          <mxGeometry x="310" y="550" width="310" height="150" as="geometry" />
        </mxCell>
        <mxCell id="ydwCoj0o6i2KOwac89_i-10" value="&lt;div style=&quot;text-align: right;&quot;&gt;&lt;span style=&quot;background-color: transparent; text-align: left; font-size: 14px;&quot;&gt;&lt;b&gt;&lt;u&gt;payment&lt;/u&gt;&lt;/b&gt;&lt;/span&gt;&lt;span style=&quot;background-color: transparent; text-align: left; font-size: 14px;&quot;&gt;&lt;b&gt;&lt;u&gt;_id&lt;/u&gt;&lt;/b&gt;&lt;/span&gt;&lt;span style=&quot;font-size: 14px; background-color: initial;&quot;&gt;&lt;b&gt;&lt;u&gt;:&lt;/u&gt;&amp;nbsp; &amp;nbsp; &amp;nbsp; &amp;nbsp; &amp;nbsp; &amp;nbsp; &amp;nbsp; &amp;nbsp; &amp;nbsp; &amp;nbsp; &amp;nbsp; &amp;nbsp; &amp;nbsp; &amp;nbsp; &amp;nbsp; &amp;nbsp; &amp;nbsp; &amp;nbsp; &amp;nbsp; &amp;nbsp; &amp;nbsp; &amp;nbsp; &amp;nbsp; &amp;nbsp; &amp;nbsp;int&amp;nbsp; &amp;nbsp; &amp;nbsp; &amp;nbsp; &amp;nbsp; &amp;nbsp; &amp;nbsp; &amp;nbsp;&lt;/b&gt;&lt;/span&gt;&lt;/div&gt;&lt;div style=&quot;text-align: right;&quot;&gt;&lt;span style=&quot;background-color: transparent; text-align: left; font-size: 14px;&quot;&gt;&lt;b&gt;payment&lt;/b&gt;&lt;/span&gt;&lt;span style=&quot;background-color: transparent; color: light-dark(rgb(0, 0, 0), rgb(255, 255, 255)); text-align: left; font-size: 14px;&quot;&gt;&lt;b&gt;_type&lt;/b&gt;&lt;/span&gt;&lt;span style=&quot;background-color: initial; color: light-dark(rgb(0, 0, 0), rgb(255, 255, 255)); font-size: 14px;&quot;&gt;&lt;b&gt;:&amp;nbsp; &amp;nbsp; &amp;nbsp; &amp;nbsp; &amp;nbsp; &amp;nbsp; &amp;nbsp; &amp;nbsp; &amp;nbsp; &amp;nbsp; &amp;nbsp; &amp;nbsp; &amp;nbsp; &amp;nbsp; &amp;nbsp; &amp;nbsp; &amp;nbsp; &amp;nbsp; &amp;nbsp;&lt;/b&gt;&lt;/span&gt;&lt;b style=&quot;background-color: initial; color: light-dark(rgb(0, 0, 0), rgb(255, 255, 255)); font-size: 14px;&quot;&gt;&amp;nbsp;string&amp;nbsp; &amp;nbsp; &amp;nbsp; &amp;nbsp; &amp;nbsp; &amp;nbsp; &amp;nbsp; &amp;nbsp;&lt;/b&gt;&lt;/div&gt;&lt;div style=&quot;text-align: right;&quot;&gt;&lt;br&gt;&lt;/div&gt;" style="align=left;strokeColor=none;fillColor=none;spacingLeft=4;fontSize=12;verticalAlign=top;resizable=0;rotatable=0;part=1;html=1;" parent="ydwCoj0o6i2KOwac89_i-9" vertex="1">
          <mxGeometry y="40" width="310" height="110" as="geometry" />
        </mxCell>
        <mxCell id="ydwCoj0o6i2KOwac89_i-11" value="" style="edgeStyle=entityRelationEdgeStyle;fontSize=12;html=1;endArrow=ERone;endFill=0;rounded=0;exitX=0.005;exitY=0.067;exitDx=0;exitDy=0;startArrow=ERoneToMany;startFill=0;exitPerimeter=0;" parent="1" source="qTvCHO6TYUYPeFaaPzX3-59" target="ydwCoj0o6i2KOwac89_i-8" edge="1">
          <mxGeometry width="100" height="100" relative="1" as="geometry">
            <mxPoint x="520" y="354" as="sourcePoint" />
            <mxPoint x="544.9" y="508" as="targetPoint" />
            <Array as="points">
              <mxPoint x="669.9999999999999" y="250" />
              <mxPoint x="530" y="350" />
              <mxPoint x="709.9999999999999" y="290" />
            </Array>
          </mxGeometry>
        </mxCell>
        <mxCell id="ydwCoj0o6i2KOwac89_i-12" value="" style="edgeStyle=entityRelationEdgeStyle;fontSize=12;html=1;endArrow=ERone;endFill=0;rounded=0;exitX=1;exitY=0;exitDx=0;exitDy=0;startArrow=ERoneToMany;startFill=0;" parent="1" source="qTvCHO6TYUYPeFaaPzX3-59" target="ydwCoj0o6i2KOwac89_i-6" edge="1">
          <mxGeometry width="100" height="100" relative="1" as="geometry">
            <mxPoint x="607.5999999999999" y="383.64999999999986" as="sourcePoint" />
            <mxPoint x="530" y="60" as="targetPoint" />
            <Array as="points">
              <mxPoint x="590" y="326" />
              <mxPoint x="560" y="300" />
              <mxPoint x="560" y="320" />
              <mxPoint x="510" y="270" />
              <mxPoint x="410" y="256" />
              <mxPoint x="689.9999999999999" y="45" />
              <mxPoint x="550" y="145" />
              <mxPoint x="729.9999999999999" y="85" />
            </Array>
          </mxGeometry>
        </mxCell>
        <mxCell id="ydwCoj0o6i2KOwac89_i-13" value="" style="edgeStyle=entityRelationEdgeStyle;fontSize=12;html=1;endArrow=ERone;endFill=0;rounded=0;exitX=1.006;exitY=0.33;exitDx=0;exitDy=0;startArrow=ERoneToMany;startFill=0;exitPerimeter=0;" parent="1" source="qTvCHO6TYUYPeFaaPzX3-59" target="qTvCHO6TYUYPeFaaPzX3-61" edge="1">
          <mxGeometry width="100" height="100" relative="1" as="geometry">
            <mxPoint x="1630" y="670" as="sourcePoint" />
            <mxPoint x="1170" y="310" as="targetPoint" />
            <Array as="points">
              <mxPoint x="1230" y="576" />
              <mxPoint x="1200" y="550" />
              <mxPoint x="1200" y="570" />
              <mxPoint x="1150" y="520" />
              <mxPoint x="1050" y="506" />
              <mxPoint x="1330" y="295" />
              <mxPoint x="1190" y="395" />
              <mxPoint x="1370" y="335" />
            </Array>
          </mxGeometry>
        </mxCell>
        <mxCell id="ydwCoj0o6i2KOwac89_i-14" value="" style="edgeStyle=entityRelationEdgeStyle;fontSize=12;html=1;endArrow=ERone;endFill=0;rounded=0;exitX=1.006;exitY=0.33;exitDx=0;exitDy=0;startArrow=ERoneToMany;startFill=0;exitPerimeter=0;entryX=0;entryY=0.25;entryDx=0;entryDy=0;" parent="1" target="ydwCoj0o6i2KOwac89_i-3" edge="1">
          <mxGeometry width="100" height="100" relative="1" as="geometry">
            <mxPoint x="990" y="661" as="sourcePoint" />
            <mxPoint x="1168" y="449" as="targetPoint" />
            <Array as="points">
              <mxPoint x="1228" y="715" />
              <mxPoint x="1198" y="689" />
              <mxPoint x="1198" y="709" />
              <mxPoint x="1148" y="659" />
              <mxPoint x="1048" y="645" />
              <mxPoint x="1328" y="434" />
              <mxPoint x="1188" y="534" />
              <mxPoint x="1368" y="474" />
            </Array>
          </mxGeometry>
        </mxCell>
        <mxCell id="ydwCoj0o6i2KOwac89_i-15" value="" style="edgeStyle=entityRelationEdgeStyle;fontSize=12;html=1;endArrow=ERone;endFill=0;rounded=0;startArrow=ERoneToMany;startFill=0;" parent="1" source="qTvCHO6TYUYPeFaaPzX3-59" target="ydwCoj0o6i2KOwac89_i-10" edge="1">
          <mxGeometry width="100" height="100" relative="1" as="geometry">
            <mxPoint x="270" y="690" as="sourcePoint" />
            <mxPoint x="460" y="717" as="targetPoint" />
            <Array as="points">
              <mxPoint x="508" y="744" />
              <mxPoint x="478" y="718" />
              <mxPoint x="478" y="738" />
              <mxPoint x="428" y="688" />
              <mxPoint x="328" y="674" />
              <mxPoint x="608" y="463" />
              <mxPoint x="468" y="563" />
              <mxPoint x="648" y="503" />
            </Array>
          </mxGeometry>
        </mxCell>
        <mxCell id="ro0Qk767AAy0YfXrPWw6-1" value="&lt;font&gt;&lt;b&gt;CORE DATA LAYER&lt;/b&gt;&lt;/font&gt;" style="text;whiteSpace=wrap;html=1;fontSize=18;" vertex="1" parent="1">
          <mxGeometry x="765" y="120" width="240" height="40" as="geometry" />
        </mxCell>
      </root>
    </mxGraphModel>
  </diagram>
</mxfile>
